<svg width="194" height="191" viewBox="0 0 194 191" fill="none" xmlns="http://www.w3.org/2000/svg">
<path d="M99.0483 15.2734C111.991 15.2734 124.759 18.2724 136.348 24.0351C147.937 29.7979 158.034 38.1676 165.846 48.4876C173.657 58.8077 178.971 70.7974 181.371 83.5161C183.771 96.2348 183.191 109.337 179.677 121.794C176.163 134.25 169.81 145.724 161.117 155.313C152.424 164.903 141.628 172.348 129.575 177.064C117.521 181.78 104.539 183.64 91.6468 182.496C78.7543 181.353 66.3021 177.237 55.2671 170.473" stroke="#03C1A4" stroke-width="2.5"/>
<path d="M179.186 141.53C172.611 153.933 163.248 164.64 151.832 172.809C140.417 180.978 127.261 186.386 113.4 188.607C99.54 190.828 85.3532 189.802 71.9568 185.609C58.5603 181.416 46.3199 174.171 36.199 164.444C26.0781 154.717 18.353 142.774 13.6318 129.555C8.91059 116.335 7.32212 102.2 8.99145 88.2625C10.6608 74.3248 15.5423 60.9648 23.2519 49.2342C30.9614 37.5035 41.2884 27.7224 53.4201 20.6607" stroke="#03C1A4" stroke-width="2.5"/>
<path d="M1.39815 104.422C0.0822797 80.5088 7.58687 56.944 22.489 38.1955C37.3912 19.4471 58.6548 6.81863 82.2482 2.70447C105.842 -1.4097 130.125 3.27651 150.493 15.8746C170.861 28.4726 185.899 48.1066 192.754 71.0539" stroke="#03C1A4" stroke-width="2.5"/>
<path d="M128.377 169.999C115.275 175.415 100.93 177.097 86.9301 174.859C72.9306 172.621 59.8241 166.551 49.0633 157.32C38.3026 148.09 30.3079 136.06 25.9654 122.564C21.6229 109.068 21.1021 94.6337 24.4609 80.86C27.8197 67.0864 34.9268 54.5117 44.9945 44.5299C55.0621 34.5481 67.6971 27.5489 81.4991 24.3082C95.301 21.0674 109.731 21.7117 123.189 26.1696C136.647 30.6275 148.608 38.7249 157.746 49.5643" stroke="#03C1A4" stroke-width="2.5"/>
<path d="M81.2398 110.556L73.89 118.413L81.2119 125.238L126.292 79.1686L118.965 71.8134L81.2398 110.556Z" fill="#03C1A4"/>
<path d="M112.145 117.407L120.002 124.757L126.827 117.435L80.7572 72.3545L73.402 79.6818L112.145 117.407Z" fill="#03C1A4"/>
</svg>
