<svg width="282" height="266" viewBox="0 0 282 266" fill="none" xmlns="http://www.w3.org/2000/svg">
<path opacity="0.5" d="M230.657 200.127C217.836 221.793 197.887 238.332 174.22 246.917C150.553 255.501 124.64 255.597 100.91 247.189C77.1805 238.781 57.1088 222.39 44.1272 200.82C31.1456 179.25 26.0604 153.84 29.7413 128.935" stroke="#08737A" stroke-width="1.26767" stroke-linecap="round"/>
<path opacity="0.5" d="M168.735 254.923C153.954 259.158 138.471 260.374 123.211 258.498C107.95 256.622 93.223 251.693 79.9079 244.004C66.5927 236.315 54.962 226.024 45.7089 213.745C36.4558 201.465 29.7698 187.448 26.0495 172.529C22.3291 157.61 21.6506 142.095 24.0543 126.909C26.458 111.722 31.8948 97.1748 40.0405 84.1341C48.1862 71.0935 58.8742 59.8264 71.4672 51.0045C84.0602 42.1825 98.3006 35.9864 113.339 32.7853" stroke="#EC6011" stroke-width="1.26767" stroke-linecap="round"/>
<path opacity="0.5" d="M256.466 127.952C258.963 145.613 257.507 163.608 252.203 180.637C246.899 197.667 237.88 213.306 225.797 226.426C213.714 239.546 198.868 249.818 182.331 256.503C165.795 263.187 147.98 266.116 130.174 265.078" stroke="#48087A" stroke-width="1.26767" stroke-linecap="round"/>
<path opacity="0.5" d="M244.688 76.7433C262.51 104.888 268.583 138.9 261.603 171.474C254.624 204.047 235.148 232.585 207.36 250.957" stroke="#08367A" stroke-width="1.26767" stroke-linecap="round"/>
<path opacity="0.5" d="M0.63517 143.349C0.974937 111.698 12.2995 81.1473 32.6725 56.922C53.0455 32.6967 81.2013 16.3011 112.326 10.5388C143.45 4.77658 175.609 10.0055 203.305 25.3316C231 40.6577 252.511 65.1289 264.16 94.5607" stroke="#08737A" stroke-width="1.26767" stroke-linecap="round"/>
<path opacity="0.5" d="M33.4909 44.6386C46.9384 30.7188 63.051 19.6489 80.868 12.089C98.685 4.52898 117.842 0.633648 137.196 0.635155C156.551 0.636662 175.707 4.53498 193.523 12.0977C211.339 19.6605 227.45 30.7328 240.895 44.6548C254.34 58.5767 264.845 75.0632 271.783 93.1316C278.721 111.2 281.95 130.48 281.278 149.823C280.606 169.166 276.046 188.176 267.87 205.719C259.694 223.262 248.07 238.979 233.691 251.934" stroke="#EC6011" stroke-width="1.26767" stroke-linecap="round"/>
<path opacity="0.5" d="M34.9185 67.8814C46.3092 52.7399 60.9201 40.3166 77.6961 31.5087C94.4722 22.7008 112.995 17.728 131.926 16.9494C150.858 16.1708 169.727 19.6058 187.169 27.0064C204.612 34.407 220.193 45.5885 232.789 59.7436" stroke="#48087A" stroke-width="1.26767" stroke-linecap="round"/>
<path opacity="0.5" d="M78.486 256.821C49.1619 241.453 27.0341 215.198 16.855 183.695C6.6759 152.192 9.25743 117.953 24.0451 88.3317" stroke="#08367A" stroke-width="1.26767" stroke-linecap="round"/>
<path d="M207.387 186.357C198.126 202.007 183.902 214.114 166.973 220.754C150.044 227.395 131.381 228.188 113.95 223.008C96.5182 217.828 81.3173 206.972 70.7618 192.165C60.2062 177.357 54.9011 159.447 55.6893 141.279C56.4775 123.111 63.3138 105.728 75.1121 91.8902C86.9105 78.0524 102.994 68.5538 120.809 64.903C138.624 61.2523 157.147 63.6589 173.437 71.7406C189.728 79.8222 202.851 93.1154 210.721 109.509" stroke="#08737A" stroke-width="14.6672"/>
<path d="M218.051 144.815C218.051 161.228 213.056 177.253 203.731 190.76C194.405 204.267 181.19 214.616 165.842 220.432C150.494 226.249 133.739 227.257 117.804 223.324C101.869 219.39 87.5087 210.7 76.6306 198.409C65.7524 186.119 58.8719 170.809 56.9033 154.514C54.9347 138.219 57.9713 121.711 65.6095 107.183C73.2476 92.6551 85.1258 80.7956 99.6655 73.1802C114.205 65.5648 130.718 62.5541 147.01 64.5482" stroke="#08367A" stroke-width="22.8389"/>
<path d="M207.479 182.754C197.813 200.664 181.675 214.209 162.36 220.623C143.046 227.037 122.011 225.837 103.552 217.268C85.092 208.698 70.5993 193.406 63.0326 174.514C55.4659 155.621 55.3959 134.552 62.8369 115.61" stroke="#48087A" stroke-width="31.5694"/>
<path d="M202.567 95.4925C210.758 106.576 215.998 119.561 217.792 133.225C219.587 146.89 217.879 160.787 212.827 173.61C207.776 186.434 199.547 197.762 188.915 206.532C178.283 215.301 165.595 221.224 152.045 223.743" stroke="#EC6011" stroke-width="42.2555"/>
</svg>
