<svg width="18" height="18" viewBox="0 0 18 18" fill="none" xmlns="http://www.w3.org/2000/svg">
<g clip-path="url(#clip0_201_512)">
<path d="M11.8121 9.56329C11.8121 10.3092 11.5157 11.0246 10.9883 11.552C10.4609 12.0795 9.74549 12.3758 8.99957 12.3758C8.25365 12.3758 7.53829 12.0795 7.01084 11.552C6.4834 11.0246 6.18708 10.3092 6.18708 9.56329C6.18708 8.81737 6.4834 8.10201 7.01084 7.57456C7.53829 7.04712 8.25365 6.7508 8.99957 6.7508C9.74549 6.7508 10.4609 7.04712 10.9883 7.57456C11.5157 8.10201 11.8121 8.81737 11.8121 9.56329Z" fill="white"/>
<path d="M2.24974 4.50092C1.65301 4.50092 1.08071 4.73797 0.65876 5.15992C0.236805 5.58188 -0.000247029 6.15417 -0.000247029 6.75091L-0.000247029 13.5009C-0.000247029 14.0976 0.236805 14.6699 0.65876 15.0919C1.08071 15.5138 1.65301 15.7509 2.24974 15.7509H15.7497C16.3464 15.7509 16.9187 15.5138 17.3407 15.0919C17.7626 14.6699 17.9997 14.0976 17.9997 13.5009V6.75091C17.9997 6.15417 17.7626 5.58188 17.3407 5.15992C16.9187 4.73797 16.3464 4.50092 15.7497 4.50092H14.4312C13.8345 4.50079 13.2623 4.26365 12.8404 3.84167L11.909 2.91017C11.4871 2.48819 10.9149 2.25105 10.3182 2.25093H7.68122C7.08453 2.25105 6.51233 2.48819 6.09048 2.91017L5.15898 3.84167C4.73712 4.26365 4.16492 4.50079 3.56824 4.50092H2.24974ZM2.81224 6.75091C2.66306 6.75091 2.51998 6.69164 2.41449 6.58615C2.30901 6.48067 2.24974 6.33759 2.24974 6.18841C2.24974 6.03923 2.30901 5.89615 2.41449 5.79066C2.51998 5.68517 2.66306 5.62591 2.81224 5.62591C2.96142 5.62591 3.1045 5.68517 3.20999 5.79066C3.31547 5.89615 3.37474 6.03923 3.37474 6.18841C3.37474 6.33759 3.31547 6.48067 3.20999 6.58615C3.1045 6.69164 2.96142 6.75091 2.81224 6.75091ZM12.9372 9.56339C12.9372 10.6077 12.5224 11.6092 11.7839 12.3476C11.0455 13.086 10.044 13.5009 8.99971 13.5009C7.95543 13.5009 6.95391 13.086 6.21549 12.3476C5.47707 11.6092 5.06223 10.6077 5.06223 9.56339C5.06223 8.51911 5.47707 7.5176 6.21549 6.77917C6.95391 6.04075 7.95543 5.62591 8.99971 5.62591C10.044 5.62591 11.0455 6.04075 11.7839 6.77917C12.5224 7.5176 12.9372 8.51911 12.9372 9.56339Z" fill="white"/>
</g>
<defs>
<clipPath id="clip0_201_512">
<rect width="17.7895" height="17.7895" fill="white" transform="scale(1.01183)"/>
</clipPath>
</defs>
</svg>
