<svg width="22" height="22" viewBox="0 0 22 22" fill="none" xmlns="http://www.w3.org/2000/svg">
<path d="M10.5 18.6625C8.33517 18.6625 6.25901 17.8025 4.72824 16.2718C3.19748 14.741 2.3375 12.6648 2.3375 10.5C2.3375 8.33517 3.19748 6.25901 4.72824 4.72824C6.25901 3.19748 8.33517 2.3375 10.5 2.3375C12.6648 2.3375 14.741 3.19748 16.2718 4.72824C17.8025 6.25901 18.6625 8.33517 18.6625 10.5C18.6625 12.6648 17.8025 14.741 16.2718 16.2718C14.741 17.8025 12.6648 18.6625 10.5 18.6625ZM10.5 20.15C13.0593 20.15 15.5139 19.1333 17.3236 17.3236C19.1333 15.5139 20.15 13.0593 20.15 10.5C20.15 7.94066 19.1333 5.48615 17.3236 3.67642C15.5139 1.86669 13.0593 0.85 10.5 0.85C7.94066 0.85 5.48615 1.86669 3.67642 3.67642C1.86669 5.48615 0.85 7.94066 0.85 10.5C0.85 13.0593 1.86669 15.5139 3.67642 17.3236C5.48615 19.1333 7.94066 20.15 10.5 20.15Z" fill="white" stroke="white" stroke-width="0.3"/>
<path d="M12.1624 9.235L9.29994 9.59375L9.19744 10.0688L9.75994 10.1725C10.1274 10.26 10.1999 10.3925 10.1199 10.7587L9.19744 15.0938C8.95494 16.215 9.32869 16.7425 10.2074 16.7425C10.8887 16.7425 11.6799 16.4275 12.0387 15.995L12.1487 15.475C11.8987 15.695 11.5337 15.7825 11.2912 15.7825C10.9474 15.7825 10.8224 15.5413 10.9112 15.1163L12.1624 9.235ZM12.2499 6.625C12.2499 6.95652 12.1182 7.27446 11.8838 7.50888C11.6494 7.7433 11.3315 7.875 10.9999 7.875C10.6684 7.875 10.3505 7.7433 10.1161 7.50888C9.88164 7.27446 9.74994 6.95652 9.74994 6.625C9.74994 6.29348 9.88164 5.97554 10.1161 5.74112C10.3505 5.5067 10.6684 5.375 10.9999 5.375C11.3315 5.375 11.6494 5.5067 11.8838 5.74112C12.1182 5.97554 12.2499 6.29348 12.2499 6.625Z" fill="white"/>
</svg>
