<svg width="24" height="24" viewBox="0 0 24 24" fill="none" xmlns="http://www.w3.org/2000/svg">
<path d="M5 8C3 8 2 9 2 11V19C2 21 3 22 5 22H13C11 22 10 21 10 19V8M5 8H10M5 8V6C5 4.9 5.9 4 7 4H10.11C10.03 4.3 10 4.63 10 5V8M14 8V13M18 8V13M6 13V17M17 17H15C14.45 17 14 17.45 14 18V22H18V18C18 17.45 17.55 17 17 17Z" stroke="#1D1D1D"  stroke-width="1.5" stroke-miterlimit="10" stroke-linecap="round" stroke-linejoin="round"/>
<path d="M10 19V5C10 3 11 2 13 2H19C21 2 22 3 22 5V19C22 21 21 22 19 22H13C11 22 10 21 10 19Z" stroke="#1D1D1D"  stroke-width="1.5" stroke-miterlimit="10" stroke-linecap="round" stroke-linejoin="round"/>
</svg>
