<svg width="21" height="21" viewBox="0 0 21 21" fill="none" xmlns="http://www.w3.org/2000/svg">
<path d="M8.75 19.25H12.25C16.625 19.25 18.375 17.5 18.375 13.125V7.875C18.375 3.5 16.625 1.75 12.25 1.75H8.75C4.375 1.75 2.625 3.5 2.625 7.875V13.125C2.625 17.5 4.375 19.25 8.75 19.25Z" stroke="white" stroke-width="2" stroke-linecap="round" stroke-linejoin="round"/>
<path d="M14.4375 6.63232V7.50732C14.4375 8.22482 13.8512 8.81982 13.125 8.81982H7.875C7.1575 8.81982 6.5625 8.23357 6.5625 7.50732V6.63232C6.5625 5.91482 7.14875 5.31982 7.875 5.31982H13.125C13.8512 5.31982 14.4375 5.90607 14.4375 6.63232Z" stroke="white" stroke-width="1.5" stroke-linecap="round" stroke-linejoin="round"/>
<path d="M7.1189 12.25H7.1294M10.4955 12.25H10.506M13.8721 12.25H13.8826M7.1189 15.3125H7.1294M10.4955 15.3125H10.506M13.8721 15.3125H13.8826" stroke="white" stroke-width="2" stroke-linecap="round" stroke-linejoin="round"/>
</svg>
