<svg width="21" height="21" viewBox="0 0 21 21" fill="none" xmlns="http://www.w3.org/2000/svg">
<path d="M11.0776 2.20337L11.0513 2.26462L8.51384 8.15337H6.02009C5.42509 8.15337 4.85634 8.27587 4.34009 8.49462L5.87134 4.83712L5.90634 4.74962L5.96759 4.60962C5.98509 4.55712 6.00259 4.50462 6.02884 4.46087C7.17509 1.80962 8.47009 1.20587 11.0776 2.20337Z" stroke="white" stroke-width="2" stroke-linecap="round" stroke-linejoin="round"/>
<path d="M15.7937 8.32812C15.3999 8.20562 14.9799 8.15313 14.5599 8.15313H8.51367L11.0512 2.26438L11.0774 2.20312C11.2087 2.24688 11.3312 2.30813 11.4624 2.36063L13.3962 3.17438C14.4724 3.62063 15.2249 4.08438 15.6799 4.64438C15.7674 4.74938 15.8374 4.84563 15.8987 4.95938C15.9774 5.08188 16.0387 5.20438 16.0737 5.33563C16.1087 5.41438 16.1349 5.49312 16.1524 5.56312C16.3887 6.29812 16.2487 7.19938 15.7937 8.32812Z" stroke="white" stroke-width="2" stroke-linecap="round" stroke-linejoin="round"/>
<path d="M18.8317 12.4233V14.1296C18.8317 14.3046 18.823 14.4796 18.8142 14.6546C18.648 17.7083 16.9417 19.2483 13.7042 19.2483H6.87925C6.66925 19.2483 6.45925 19.2308 6.258 19.2046C3.4755 19.0208 1.988 17.5333 1.80425 14.7508C1.778 14.5496 1.7605 14.3396 1.7605 14.1296V12.4233C1.7605 10.6646 2.828 9.15082 4.3505 8.49457C4.8755 8.27582 5.4355 8.15332 6.0305 8.15332H14.5705C14.9992 8.15332 15.4192 8.21457 15.8042 8.32832C17.5455 8.86207 18.8317 10.4896 18.8317 12.4233Z" stroke="white" stroke-width="2" stroke-linecap="round" stroke-linejoin="round"/>
<path d="M5.87125 4.83691L4.34 8.49441C3.57185 8.82487 2.91725 9.37299 2.457 10.0712C1.99674 10.7693 1.75097 11.5869 1.75 12.4232V9.85941C1.75 7.37441 3.5175 5.30066 5.87125 4.83691ZM18.8291 9.85941V12.4232C18.8291 10.4982 17.5516 8.86191 15.8016 8.33691C16.2566 7.19941 16.3879 6.30691 16.1691 5.56316C16.1516 5.48441 16.1254 5.40566 16.0904 5.33566C17.7179 6.17566 18.8291 7.89941 18.8291 9.85941Z" stroke="white" stroke-width="2" stroke-linecap="round" stroke-linejoin="round"/>
</svg>
