<svg width="21" height="21" viewBox="0 0 21 21" fill="none" xmlns="http://www.w3.org/2000/svg">
<g clip-path="url(#clip0_201_773)">
<path d="M3.49029 12.8276L2.16029 11.4976C1.61779 10.9551 1.61779 10.0626 2.16029 9.5201L3.49029 8.1901C3.71779 7.9626 3.90154 7.51635 3.90154 7.20135V5.3201C3.90154 4.5501 4.53154 3.9201 5.30154 3.9201H7.18279C7.49779 3.9201 7.94404 3.73635 8.17154 3.50885L9.50154 2.17885C10.044 1.63635 10.9365 1.63635 11.479 2.17885L12.809 3.50885C13.0365 3.73635 13.4828 3.9201 13.7978 3.9201H15.679C16.449 3.9201 17.079 4.5501 17.079 5.3201V7.20135C17.079 7.51635 17.2628 7.9626 17.4903 8.1901L18.8203 9.5201C19.3628 10.0626 19.3628 10.9551 18.8203 11.4976L17.4903 12.8276C17.2628 13.0551 17.079 13.5013 17.079 13.8163V15.6976C17.079 16.4676 16.449 17.0976 15.679 17.0976H13.7978C13.4828 17.0976 13.0365 17.2813 12.809 17.5088L11.479 18.8388C10.9365 19.3813 10.044 19.3813 9.50154 18.8388L8.17154 17.5088C7.94404 17.2813 7.49779 17.0976 7.18279 17.0976H5.30154C4.53154 17.0976 3.90154 16.4676 3.90154 15.6976V13.8163C3.90154 13.4926 3.71779 13.0463 3.49029 12.8276Z" stroke="white" stroke-width="2" stroke-linecap="round" stroke-linejoin="round"/>
<path d="M12.6831 12.6875H12.691M8.30811 8.3125H8.31511" stroke="white" stroke-width="1.5" stroke-linecap="round" stroke-linejoin="round"/>
<path d="M7.875 13.125L13.125 7.875" stroke="white" stroke-width="1.5" stroke-linecap="round" stroke-linejoin="round"/>
</g>
<defs>
<clipPath id="clip0_201_773">
<rect width="21" height="21" fill="white"/>
</clipPath>
</defs>
</svg>
