<svg width="22" height="22" viewBox="0 0 22 22" fill="none" xmlns="http://www.w3.org/2000/svg">
<g clip-path="url(#clip0_180_127)">
<path d="M16.5091 18.3241C14.9221 19.5215 12.9879 20.1684 10.9999 20.1666C5.93992 20.1666 2.85075 15.07 2.85075 15.07M2.85075 15.07H6.99409M2.85075 15.07V19.6533M20.1666 11C20.1666 12.6683 19.7174 14.2358 18.9383 15.5833M5.52742 3.63915C7.10759 2.45988 9.02822 1.8261 10.9999 1.83331C17.1141 1.83331 20.1666 6.92998 20.1666 6.92998M20.1666 6.92998V2.34665M20.1666 6.92998H16.0966M1.83325 11C1.83325 9.33165 2.27325 7.76415 3.05242 6.41665" stroke="#1D1D1D"  stroke-width="2" stroke-linecap="round" stroke-linejoin="round"/>
</g>
<defs>
<clipPath id="clip0_180_127">
<rect width="22" height="22" fill="white"/>
</clipPath>
</defs>
</svg>
