<svg width="23" height="23" viewBox="0 0 23 23" fill="none" xmlns="http://www.w3.org/2000/svg">
<path d="M11.5001 21.0835C6.21008 21.0778 1.9225 16.7902 1.91675 11.5002V11.3085C2.02216 6.04248 6.35862 1.84785 11.6247 1.91685C16.8926 1.98777 21.116 6.29548 21.0815 11.5625C21.047 16.8304 16.768 21.0835 11.5001 21.0835ZM11.4847 19.1669H11.5001C13.5327 19.1648 15.4814 18.3557 16.9176 16.9173C18.3539 15.4789 19.1601 13.529 19.1591 11.4964C19.1581 9.4637 18.3499 7.51463 16.9122 6.07768C15.4745 4.64073 13.5251 3.83353 11.4924 3.83353C9.45975 3.83353 7.51029 4.64073 6.07262 6.07768C4.63495 7.51463 3.82677 9.4637 3.82575 11.4964C3.82473 13.529 4.63097 15.4789 6.0672 16.9173C7.50343 18.3557 9.45209 19.1648 11.4847 19.1669ZM12.4584 17.2502H10.5417V15.3335H12.4584V17.2502ZM12.4584 14.3752H10.5417C10.5269 13.7623 10.6763 13.1567 10.9746 12.6211C11.2729 12.0856 11.7091 11.6396 12.238 11.3296C12.8705 10.8447 13.4167 10.4269 13.4167 9.58352C13.4167 9.07519 13.2148 8.58768 12.8554 8.22823C12.4959 7.86879 12.0084 7.66685 11.5001 7.66685C10.9918 7.66685 10.5042 7.86879 10.1448 8.22823C9.78535 8.58768 9.58342 9.07519 9.58342 9.58352H7.66675V9.49727C7.67819 8.48061 8.09302 7.51013 8.82 6.79933C9.54698 6.08852 10.5265 5.69563 11.5432 5.70706C12.5599 5.7185 13.5304 6.13334 14.2412 6.86031C14.952 7.58729 15.3449 8.56686 15.3334 9.58352C15.2996 10.0935 15.1467 10.5884 14.8871 11.0285C14.6275 11.4687 14.2683 11.842 13.8384 12.1183C13.4497 12.3623 13.1228 12.6931 12.8834 13.0847C12.6439 13.4762 12.4985 13.918 12.4584 14.3752Z" fill="white"/>
</svg>
