<svg width="21" height="21" viewBox="0 0 21 21" fill="none" xmlns="http://www.w3.org/2000/svg">
<path d="M3.49524 10.2657L3.49525 10.2653C3.50241 10.0212 3.41232 9.78432 3.2448 9.60668C3.07728 9.42903 2.84605 9.32521 2.60198 9.31805C2.3579 9.31089 2.12099 9.40098 1.94334 9.5685C1.76577 9.73595 1.66197 9.96704 1.65472 10.211C1.59619 12.0024 2.08296 13.7693 3.05062 15.278C4.01829 16.7867 5.42123 17.966 7.07381 18.6599C8.72639 19.3538 10.5507 19.5295 12.3054 19.1639C14.06 18.7983 15.6623 17.9085 16.9002 16.6123C18.1381 15.3161 18.9532 13.6746 19.2378 11.905C19.5223 10.1354 19.2628 8.32105 18.4937 6.70213C17.7245 5.08322 16.4819 3.736 14.9303 2.83875C13.3788 1.94153 11.5914 1.53654 9.80459 1.67737C7.60051 1.84819 5.54414 2.83964 4.03902 4.45023L4.03998 2.57337L4.04022 2.57337L4.03974 2.56641L4.03208 2.45594L4.0323 2.45592L4.03141 2.44938C4.00434 2.25019 3.91279 2.06534 3.77075 1.92308C3.62871 1.78082 3.44401 1.68898 3.24485 1.6616L3.24489 1.66129L3.2371 1.66084L3.12554 1.65427L3.12558 1.65358L3.1138 1.65427L3.00223 1.66084L3.00222 1.66053L2.99448 1.6616C2.79533 1.68898 2.61062 1.78082 2.46858 1.92308C2.32655 2.06534 2.235 2.25019 2.20792 2.44938L2.20771 2.44935L2.20725 2.45594L2.1996 2.56641L2.19936 2.56639V2.57332V6.94832H2.19912L2.19959 6.95516L2.20725 7.06673L2.20703 7.06674L2.20792 7.07335C2.235 7.27254 2.32655 7.4574 2.46858 7.59965C2.61062 7.74191 2.79533 7.83375 2.99448 7.86114L2.99444 7.86144L3.00223 7.8619L3.1138 7.86846L3.11379 7.86863H3.11967H6.9456V7.8688L6.95148 7.86846L7.06304 7.8619L7.06305 7.86216L7.0703 7.8612C7.29151 7.83189 7.49453 7.7232 7.64159 7.55537C7.78864 7.38755 7.86971 7.17201 7.86971 6.94886C7.86971 6.72572 7.78864 6.51018 7.64159 6.34236C7.49453 6.17453 7.29151 6.06584 7.0703 6.03653L7.07033 6.03633L7.06401 6.0359L6.95245 6.02824L6.95247 6.02801H6.9456H5.10384L5.19232 5.92001C6.27205 4.6678 7.75971 3.83758 9.39237 3.57611C11.0254 3.31458 12.6984 3.63893 14.1154 4.49181C15.5324 5.34469 16.6022 6.67116 17.1356 8.23666C17.669 9.80217 17.6317 11.5059 17.0302 13.0465C16.4287 14.5871 15.3018 15.8654 13.8488 16.6554C12.3957 17.4454 10.7102 17.6961 9.09014 17.3632C7.4701 17.0304 6.01993 16.1354 4.99607 14.8366C3.9722 13.5377 3.44059 11.9187 3.49524 10.2657ZM10.2326 6.02824L10.1258 6.02091V6.03481L10.1083 6.03584L10.1083 6.03553L10.1006 6.03659C9.90142 6.06398 9.71671 6.15582 9.57468 6.29808C9.43264 6.44033 9.34109 6.62519 9.31401 6.82438L9.3138 6.82435L9.31334 6.83094L9.30569 6.9414L9.30545 6.94139V6.94832V11.32H9.30522L9.30568 11.3268L9.31333 11.4395L9.3131 11.4395L9.31403 11.4463C9.34135 11.6453 9.43302 11.8298 9.57503 11.9719C9.71705 12.1139 9.90162 12.2055 10.1006 12.2329L10.1006 12.2331L10.1074 12.2336L10.2189 12.2412L10.2189 12.2414H10.2258H12.9601V12.2417L12.967 12.2412L13.0785 12.2336L13.0786 12.2338L13.0853 12.2329C13.3056 12.2025 13.5075 12.0935 13.6536 11.9259C13.7997 11.7583 13.8802 11.5435 13.8802 11.3211C13.8802 11.0988 13.7997 10.8839 13.6536 10.7163C13.5075 10.5487 13.3056 10.4397 13.0853 10.4094L13.0854 10.4092L13.0785 10.4087L12.967 10.4011L12.967 10.4008L12.9602 10.4008L11.1461 10.3998V6.94832H11.1463L11.1458 6.9414L11.1382 6.83094L11.1384 6.83092L11.1375 6.82438C11.1104 6.62519 11.0189 6.44033 10.8768 6.29808C10.7348 6.15582 10.5501 6.06398 10.3509 6.03659L10.351 6.03636L10.3442 6.0359L10.2326 6.02824Z" fill="white" stroke="white" stroke-width="0.2"/>
</svg>
