<svg width="21" height="21" viewBox="0 0 21 21" fill="none" xmlns="http://www.w3.org/2000/svg">
<g clip-path="url(#clip0_201_765)">
<path d="M15.7588 17.4913C14.2439 18.6342 12.3976 19.2517 10.5 19.2501C5.67 19.2501 2.72125 14.3851 2.72125 14.3851M2.72125 14.3851H6.67625M2.72125 14.3851V18.7601M19.25 10.5001C19.25 12.0926 18.8212 13.5888 18.0775 14.8751M5.27625 3.47381C6.7846 2.34814 8.61793 1.74317 10.5 1.75006C16.3363 1.75006 19.25 6.61506 19.25 6.61506M19.25 6.61506V2.24006M19.25 6.61506H15.365M1.75 10.5001C1.75 8.90756 2.17 7.41131 2.91375 6.12506" stroke="white" stroke-width="2" stroke-linecap="round" stroke-linejoin="round"/>
</g>
<defs>
<clipPath id="clip0_201_765">
<rect width="21" height="21" fill="white"/>
</clipPath>
</defs>
</svg>
