<svg width="24" height="24" viewBox="0 0 24 24" fill="none" xmlns="http://www.w3.org/2000/svg">
<path d="M12.5 22.0003H4.07997C2.91997 22.0003 1.96997 21.0703 1.96997 19.9303V5.09035C1.96997 2.47035 3.91997 1.28035 6.30997 2.45035L10.75 4.63035C11.71 5.10035 12.5 6.35035 12.5 7.41035V22.0003ZM12.5 22.0003H18.81C20.97 22.0003 21.97 21.0003 21.97 18.8403V15.0603C21.97 14.9903 21.97 14.9303 21.96 14.8703C21.9 12.9503 20.82 12.2703 19.5 11.9803L17.47 11.5303L12.97 10.5203L12.5 10.4203V22.0003ZM5.49997 9.00035H8.96997M5.49997 13.0003H8.96997" stroke="#1D1D1D"  stroke-width="1.5" stroke-linecap="round" stroke-linejoin="round"/>
<path d="M17.47 11.5295V14.7495M17.47 11.5295L12.97 10.5195V14.7495C12.97 15.9895 13.98 16.9995 15.22 16.9995C16.46 16.9995 17.47 15.9895 17.47 14.7495M17.47 11.5295L19.5 11.9795C20.82 12.2695 21.9 12.9495 21.96 14.8695C21.9296 15.4436 21.6805 15.9842 21.2639 16.3803C20.8473 16.7765 20.2948 16.998 19.72 16.9995C18.48 16.9995 17.47 15.9895 17.47 14.7495" stroke="#1D1D1D"  stroke-width="1.5" stroke-linecap="round" stroke-linejoin="round"/>
</svg>
