<svg width="19" height="19" viewBox="0 0 19 19" fill="none" xmlns="http://www.w3.org/2000/svg">
<path d="M11.875 0.890625C10.2221 0.892589 8.63755 1.55005 7.4688 2.7188C6.30005 3.88755 5.64259 5.47214 5.64062 7.125C5.63855 7.72049 5.72356 8.31309 5.89297 8.88398L1.74414 13.0254C1.57927 13.1942 1.48618 13.4203 1.48438 13.6562V16.625C1.48438 16.8612 1.57821 17.0877 1.74523 17.2548C1.91226 17.4218 2.13879 17.5156 2.375 17.5156H5.34375C5.57996 17.5156 5.80649 17.4218 5.97352 17.2548C6.14054 17.0877 6.23438 16.8612 6.23438 16.625V15.7344H7.125C7.36121 15.7344 7.58774 15.6405 7.75477 15.4735C7.92179 15.3065 8.01562 15.08 8.01562 14.8438V13.9531H8.90625C9.14221 13.9513 9.3683 13.8582 9.53711 13.6934L10.116 13.107C10.6869 13.2764 11.2795 13.3615 11.875 13.3594C13.5285 13.3594 15.1142 12.7025 16.2834 11.5334C17.4525 10.3642 18.1094 8.77846 18.1094 7.125C18.1094 5.47154 17.4525 3.8858 16.2834 2.71663C15.1142 1.54746 13.5285 0.890625 11.875 0.890625ZM11.875 11.5781C11.3134 11.5795 10.7567 11.4737 10.2348 11.2664C10.0716 11.1961 9.89111 11.1762 9.71652 11.2092C9.54194 11.2423 9.38124 11.3268 9.25508 11.452L8.53516 12.1719H7.125C6.88879 12.1719 6.66226 12.2657 6.49523 12.4327C6.32821 12.5998 6.23438 12.8263 6.23438 13.0625V13.9531H5.34375C5.10754 13.9531 4.88101 14.047 4.71398 14.214C4.54696 14.381 4.45312 14.6075 4.45312 14.8438V15.7344H3.26562V14.0273L7.54805 9.74492C7.67317 9.61876 7.7577 9.45806 7.79077 9.28348C7.82383 9.10889 7.80392 8.92841 7.73359 8.76523C7.38281 7.87984 7.32512 6.90532 7.56898 5.98472C7.81284 5.06413 8.34541 4.24596 9.0885 3.65033C9.8316 3.0547 10.7461 2.71298 11.6977 2.67535C12.6493 2.63772 13.5879 2.90615 14.3757 3.44124C15.1635 3.97633 15.759 4.74989 16.0748 5.64835C16.3906 6.54682 16.41 7.52286 16.1303 8.43318C15.8505 9.34351 15.2863 10.1402 14.5204 10.7062C13.7545 11.2722 12.8273 11.5778 11.875 11.5781ZM14.5469 5.64062C14.5469 5.87549 14.4772 6.10508 14.3467 6.30036C14.2163 6.49565 14.0308 6.64785 13.8138 6.73773C13.5968 6.82761 13.3581 6.85113 13.1277 6.80531C12.8974 6.75949 12.6858 6.64639 12.5197 6.48031C12.3536 6.31424 12.2405 6.10265 12.1947 5.87229C12.1489 5.64194 12.1724 5.40318 12.2623 5.18619C12.3521 4.9692 12.5044 4.78374 12.6996 4.65325C12.8949 4.52277 13.1245 4.45312 13.3594 4.45312C13.6743 4.45312 13.9764 4.57824 14.1991 4.80094C14.4218 5.02364 14.5469 5.32568 14.5469 5.64062Z" fill="white"/>
</svg>
