<svg width="24" height="24" viewBox="0 0 24 24" fill="none" xmlns="http://www.w3.org/2000/svg">
<path d="M11.9999 13.4304C12.4096 13.4304 12.8153 13.3497 13.1939 13.1929C13.5724 13.0361 13.9163 12.8063 14.2061 12.5166C14.4958 12.2269 14.7256 11.8829 14.8824 11.5044C15.0392 11.1259 15.1199 10.7202 15.1199 10.3104C15.1199 9.90071 15.0392 9.49499 14.8824 9.11646C14.7256 8.73792 14.4958 8.39397 14.2061 8.10426C13.9163 7.81454 13.5724 7.58472 13.1939 7.42793C12.8153 7.27113 12.4096 7.19043 11.9999 7.19043C11.1724 7.19043 10.3788 7.51914 9.79371 8.10426C9.2086 8.68937 8.87988 9.48295 8.87988 10.3104C8.87988 11.1379 9.2086 11.9315 9.79371 12.5166C10.3788 13.1017 11.1724 13.4304 11.9999 13.4304Z" stroke="#1D1D1D"  stroke-width="1.5"/>
<path d="M3.61995 8.49C5.58995 -0.169998 18.42 -0.159997 20.38 8.5C21.53 13.58 18.37 17.88 15.6 20.54C14.632 21.4735 13.3397 21.9952 11.995 21.9952C10.6502 21.9952 9.35788 21.4735 8.38995 20.54C5.62995 17.88 2.46995 13.57 3.61995 8.49Z" stroke="#1D1D1D"  stroke-width="1.5"/>
</svg>
