<svg width="21" height="21" viewBox="0 0 21 21" fill="none" xmlns="http://www.w3.org/2000/svg">
<path d="M9.17864 1.95148L4.81239 3.58773C3.80614 3.96398 2.98364 5.15398 2.98364 6.23023V12.7315C2.98364 13.764 3.66614 15.1202 4.49739 15.7415L8.25989 18.5502C9.49364 19.4777 11.5236 19.4777 12.7574 18.5502L16.5199 15.7415C17.3511 15.1202 18.0336 13.764 18.0336 12.7315V6.23023C18.0336 5.15398 17.2111 3.96398 16.2049 3.58773L11.8386 1.95148C11.0949 1.68023 9.90489 1.68023 9.17864 1.95148Z" stroke="white" stroke-width="2" stroke-linecap="round" stroke-linejoin="round"/>
<path d="M10.4999 9.55461H10.3862C9.56366 9.52836 8.90741 8.84586 8.90741 8.01461C8.90741 7.16586 9.59866 6.47461 10.4474 6.47461C11.2962 6.47461 11.9874 7.16586 11.9874 8.01461C11.9787 8.85461 11.3224 9.52836 10.4999 9.55461ZM8.75866 12.0046C7.91866 12.5646 7.91866 13.4834 8.75866 14.0434C9.71241 14.6821 11.2787 14.6821 12.2324 14.0434C13.0724 13.4834 13.0724 12.5646 12.2324 12.0046C11.2874 11.3659 9.72116 11.3659 8.75866 12.0046Z" stroke="white" stroke-width="2" stroke-linecap="round" stroke-linejoin="round"/>
</svg>
