<svg width="22" height="22" viewBox="0 0 22 22" fill="none" xmlns="http://www.w3.org/2000/svg">
<g clip-path="url(#clip0_180_124)">
<path d="M2.46575 17.4258C3.34575 19.3416 5.17909 20.1666 8.24992 20.1666H13.7499C18.3333 20.1666 20.1666 18.3333 20.1666 13.7499V8.24992C20.1666 3.66659 18.3333 1.83325 13.7499 1.83325H8.24992C3.66659 1.83325 1.83325 3.66659 1.83325 8.24992V13.7499" stroke="#1D1D1D" stroke-width="2" stroke-linecap="round" stroke-linejoin="round"/>
<path d="M1.83325 11.9149H5.27992C5.621 11.9151 5.95526 12.0104 6.24513 12.1902C6.535 12.3699 6.76897 12.627 6.92075 12.9324L7.73659 14.5733C8.24992 15.5816 9.16659 15.5816 9.38659 15.5816H12.6224C12.9635 15.5814 13.2978 15.4861 13.5876 15.3063C13.8775 15.1266 14.1115 14.8695 14.2633 14.5641L15.0791 12.9233C15.2309 12.6178 15.4648 12.3608 15.7547 12.181C16.0446 12.0013 16.3788 11.9059 16.7199 11.9058H20.1483" stroke="#1D1D1D" stroke-width="2" stroke-linecap="round" stroke-linejoin="round"/>
</g>
<defs>
<clipPath id="clip0_180_124">
<rect width="22" height="22" fill="white"/>
</clipPath>
</defs>
</svg>
