<svg width="20" height="20" viewBox="0 0 20 20" fill="none" xmlns="http://www.w3.org/2000/svg">
<path d="M5.83327 10.8344H9.9999M5.83327 14.1677H13.3332M15.8332 6.66775C16.4962 6.66775 17.1321 6.40436 17.6009 5.93552C18.0698 5.46669 18.3332 4.83081 18.3332 4.16777C18.3332 3.50474 18.0698 2.86886 17.6009 2.40002C17.1321 1.93118 16.4962 1.66779 15.8332 1.66779C15.1701 1.66779 14.5343 1.93118 14.0654 2.40002C13.5966 2.86886 13.3332 3.50474 13.3332 4.16777C13.3332 4.83081 13.5966 5.46669 14.0654 5.93552C14.5343 6.40436 15.1701 6.66775 15.8332 6.66775Z" stroke="white" stroke-width="1.66667" stroke-linecap="round" stroke-linejoin="round"/>
<path d="M11.6667 1.66779H7.50007C3.33344 1.66779 1.66679 3.33445 1.66679 7.50107V12.501C1.66679 16.6677 3.33344 18.3343 7.50007 18.3343H12.5C16.6667 18.3343 18.3333 16.6677 18.3333 12.501V8.3344" stroke="white" stroke-width="1.66667" stroke-linecap="round" stroke-linejoin="round"/>
</svg>
