<svg width="20" height="20" viewBox="0 0 20 20" fill="none" xmlns="http://www.w3.org/2000/svg">
<path d="M11.8848 12.865H7.71821" stroke="white" stroke-width="1.5" stroke-miterlimit="10" stroke-linecap="round" stroke-linejoin="round"/>
<path d="M10.5498 2.09827L10.5248 2.15661L8.10813 7.76487H5.73316C5.1665 7.76487 4.62484 7.88154 4.13318 8.08987L5.5915 4.60658L5.62483 4.52325L5.68316 4.38991C5.69983 4.33991 5.71649 4.28991 5.74149 4.24825C6.83315 1.72328 8.06647 1.14829 10.5498 2.09827Z" stroke="white" stroke-width="1.5" stroke-linecap="round" stroke-linejoin="round"/>
<path d="M15.0415 7.93167C14.6665 7.815 14.2665 7.76501 13.8665 7.76501H8.10828L10.5249 2.15674L10.5499 2.09841C10.6749 2.14007 10.7916 2.19841 10.9166 2.2484L12.7582 3.0234C13.7832 3.44839 14.4999 3.89005 14.9332 4.42338C15.0165 4.52338 15.0832 4.61504 15.1415 4.72338C15.2165 4.84004 15.2749 4.95671 15.3082 5.0817C15.3415 5.1567 15.3665 5.2317 15.3832 5.29837C15.6082 5.99836 15.4749 6.85668 15.0415 7.93167Z" stroke="white" stroke-width="1.5" stroke-linecap="round" stroke-linejoin="round"/>
<path d="M17.9349 11.8319V13.4569C17.9349 13.6236 17.9266 13.7902 17.9182 13.9569C17.7599 16.8652 16.1349 18.3318 13.0516 18.3318H6.55171C6.35171 18.3318 6.15172 18.3152 5.96005 18.2902C3.31008 18.1152 1.89344 16.6985 1.71844 14.0486C1.69344 13.8569 1.67677 13.6569 1.67677 13.4569V11.8319C1.67677 10.1569 2.69343 8.7153 4.14341 8.0903C4.6434 7.88197 5.17673 7.76531 5.74339 7.76531H13.8766C14.285 7.76531 14.6849 7.82364 15.0516 7.93197C16.7099 8.4403 17.9349 9.99028 17.9349 11.8319Z" stroke="white" stroke-width="1.5" stroke-linecap="round" stroke-linejoin="round"/>
<path d="M5.5917 4.60667L4.13339 8.08997C3.40182 8.40468 2.77841 8.9267 2.34007 9.5916C1.90174 10.2565 1.66767 11.0352 1.66675 11.8316V9.38995C1.66675 7.02331 3.35006 5.04834 5.5917 4.60667ZM17.9324 9.38995V11.8316C17.9324 9.99828 16.7157 8.43996 15.0491 7.93997C15.4824 6.85665 15.6074 6.00666 15.3991 5.29833C15.3824 5.22333 15.3574 5.14833 15.3241 5.08167C16.8741 5.88166 17.9324 7.52331 17.9324 9.38995Z" stroke="white" stroke-width="1.5" stroke-linecap="round" stroke-linejoin="round"/>
</svg>
