<svg width="22" height="22" viewBox="0 0 22 22" fill="none" xmlns="http://www.w3.org/2000/svg">
<path d="M11.0001 5.90417V8.95667M18.8742 13.9058C19.5434 15.0241 19.0117 16.4724 17.7742 16.8849C13.3914 18.3424 8.65457 18.3424 4.27173 16.8849C2.95173 16.4449 2.44756 15.1066 3.17173 13.9058L4.33589 11.9624C4.65673 11.4308 4.91339 10.4866 4.91339 9.87242V7.94742C4.91219 7.14493 5.06921 6.35007 5.37548 5.60832C5.68174 4.86657 6.13124 4.19248 6.69826 3.6246C7.26528 3.05673 7.9387 2.60622 8.67999 2.29884C9.42128 1.99146 10.2159 1.83325 11.0184 1.83325C14.3734 1.83325 17.1234 4.58325 17.1234 7.93825V9.86325C17.1234 10.0283 17.1417 10.2116 17.1692 10.4041" stroke="#1D1D1D"  stroke-width="2" stroke-miterlimit="10" stroke-linecap="round"/>
<path d="M14.0525 17.2517C14.0525 18.9292 12.6775 20.3042 11 20.3042C10.1658 20.3042 9.39584 19.9559 8.84584 19.4059C8.29584 18.8559 7.94751 18.0859 7.94751 17.2517" stroke="#1D1D1D"  stroke-width="2" stroke-miterlimit="10"/>
</svg>
