<svg width="19" height="19" viewBox="0 0 19 19" fill="none" xmlns="http://www.w3.org/2000/svg">
<g clip-path="url(#clip0_201_756)">
<path d="M10.6875 9.5C10.6875 10.1568 10.1568 10.6875 9.5 10.6875C8.84316 10.6875 8.3125 10.1568 8.3125 9.5V1.1875C8.3125 0.531777 8.84316 0 9.5 0C10.1568 0 10.6875 0.531777 10.6875 1.1875V9.5ZM2.96875 9.5C2.96875 13.107 5.89297 16.0312 9.5 16.0312C13.107 16.0312 16.0312 13.107 16.0312 9.5C16.0312 7.48125 15.1146 5.67402 13.6748 4.47539C13.1701 4.05605 13.0996 3.30756 13.5189 2.80324C13.9383 2.29893 14.6879 2.23027 15.1926 2.64961C17.152 4.28242 18.4062 6.74648 18.4062 9.4666C18.4062 14.417 14.417 18.4062 9.5 18.4062C4.58301 18.4062 0.59375 14.417 0.59375 9.4666C0.59375 6.74648 1.84619 4.28242 3.80742 2.64961C4.31211 2.23027 5.06172 2.29893 5.48105 2.80324C5.86699 3.30756 5.82988 4.05605 5.3252 4.47539C3.88535 5.67402 2.96875 7.48125 2.96875 9.5Z" fill="white"/>
</g>
<defs>
<clipPath id="clip0_201_756">
<rect width="19" height="19" fill="white"/>
</clipPath>
</defs>
</svg>
