<svg width="21" height="21" viewBox="0 0 21 21" fill="none" xmlns="http://www.w3.org/2000/svg">
<path d="M10.5406 0.783619L10.5 0.765568L10.4594 0.783619L2.58439 4.28362L2.525 4.31001V4.375V9.625C2.525 14.5232 5.91259 19.1078 10.4763 20.2221L10.5 20.2279L10.5237 20.2221C15.0874 19.1078 18.475 14.5232 18.475 9.625V4.375V4.31001L18.4156 4.28362L10.5406 0.783619ZM9.625 6.025H9.525V6.125V7.875V7.975H9.625H11.375H11.475V7.875V6.125V6.025H11.375H9.625ZM9.625 9.525H9.525V9.625V14.875V14.975H9.625H11.375H11.475V14.875V9.625V9.525H11.375H9.625ZM4.475 5.5775L10.5 2.90068L16.525 5.5775V9.625C16.525 13.5284 13.9576 17.1266 10.5 18.209C7.0424 17.1266 4.475 13.5284 4.475 9.625V5.5775Z" fill="white" stroke="white" stroke-width="0.2"/>
</svg>
