<svg width="24" height="24" viewBox="0 0 24 24" fill="none" xmlns="http://www.w3.org/2000/svg">
<path d="M14.94 8.03998C15.16 8.47998 15.29 8.97998 15.29 9.50998C15.28 11.28 13.89 12.73 12.13 12.78C12.0503 12.77 11.9697 12.77 11.89 12.78C11.0419 12.7514 10.2382 12.3944 9.64851 11.7842C9.05886 11.174 8.72948 10.3585 8.72996 9.50998C8.72996 7.69998 10.19 6.22998 12.01 6.22998M18.742 19.379C16.9042 21.0681 14.498 22.0034 12.002 21.999C9.40196 21.999 7.04196 21.009 5.26196 19.379C5.36196 18.439 5.96196 17.519 7.03196 16.799C9.77196 14.979 14.252 14.979 16.972 16.799C18.042 17.519 18.642 18.439 18.742 19.379Z" stroke="#1D1D1D" stroke-width="1.5" stroke-linecap="round" stroke-linejoin="round"/>
<path d="M4 6C2.75 7.67 2 9.75 2 12C2 17.52 6.48 22 12 22C17.52 22 22 17.52 22 12C22 6.48 17.52 2 12 2C10.57 2 9.2 2.3 7.97 2.85" stroke="#1D1D1D" stroke-width="1.5" stroke-linecap="round" stroke-linejoin="round"/>
</svg>
