<svg width="176" height="176" viewBox="0 0 176 176" fill="none" xmlns="http://www.w3.org/2000/svg">
<path d="M117.333 176H97.7778V156.444H117.333V176ZM97.7778 107.556H78.2222V156.444H97.7778V107.556ZM176 88H156.444V127.111H176V88ZM156.444 68.4444H136.889V88H156.444V68.4444ZM39.1111 88H19.5556V107.556H39.1111V88ZM19.5556 68.4444H0V88H19.5556V68.4444ZM88 19.5556H107.556V0H88V19.5556ZM14.6667 14.6667V44H44V14.6667H14.6667ZM48.8889 58.6667H9.77778C4.4 58.6667 0 54.2667 0 48.8889V9.77778C0 4.4 4.4 0 9.77778 0H48.8889C54.2667 0 58.6667 4.4 58.6667 9.77778V48.8889C58.6667 54.2667 54.2667 58.6667 48.8889 58.6667ZM14.6667 132V161.333H44V132H14.6667ZM48.8889 176H9.77778C4.4 176 0 171.6 0 166.222V127.111C0 121.733 4.4 117.333 9.77778 117.333H48.8889C54.2667 117.333 58.6667 121.733 58.6667 127.111V166.222C58.6667 171.6 54.2667 176 48.8889 176ZM132 14.6667V44H161.333V14.6667H132ZM166.222 58.6667H127.111C121.733 58.6667 117.333 54.2667 117.333 48.8889V9.77778C117.333 4.4 121.733 0 127.111 0H166.222C171.6 0 176 4.4 176 9.77778V48.8889C176 54.2667 171.6 58.6667 166.222 58.6667ZM156.444 156.444V127.111H117.333V146.667H136.889V176H176V156.444H156.444ZM136.889 88H97.7778V107.556H136.889V88ZM97.7778 68.4444H39.1111V88H58.6667V107.556H78.2222V88H97.7778V68.4444ZM107.556 58.6667V39.1111H88V19.5556H68.4444V58.6667H107.556ZM36.6667 22H22V36.6667H36.6667V22ZM36.6667 139.333H22V154H36.6667V139.333ZM154 22H139.333V36.6667H154V22Z" fill="#03C1A4"/>
</svg>
