<svg width="21" height="21" viewBox="0 0 21 21" fill="none" xmlns="http://www.w3.org/2000/svg">
<g clip-path="url(#clip0_201_714)">
<path fill-rule="evenodd" clip-rule="evenodd" d="M9.88575 1.92091C10.2818 1.77246 10.7182 1.77246 11.1143 1.92091L17.2393 4.21779C17.5729 4.34285 17.8604 4.56679 18.0634 4.85965C18.2663 5.15251 18.375 5.50035 18.375 5.85666V10.5493C18.375 12.0118 17.9678 13.4454 17.1989 14.6895C16.4301 15.9336 15.33 16.939 14.0219 17.593L11.0871 19.0604C10.9048 19.1516 10.7038 19.1991 10.5 19.1991C10.2962 19.1991 10.0952 19.1516 9.91288 19.0604L6.97813 17.593C5.67003 16.939 4.56992 15.9336 3.80106 14.6895C3.0322 13.4454 2.62497 12.0118 2.625 10.5493V5.85666C2.62496 5.50035 2.73368 5.15251 2.93663 4.85965C3.13959 4.56679 3.42711 4.34285 3.76075 4.21779L9.88575 1.92091ZM10.5 3.55979L4.375 5.85666V10.5493C4.3752 11.6867 4.69209 12.8015 5.29018 13.769C5.88826 14.7364 6.7439 15.5182 7.76125 16.0268L10.5 17.3979V3.55979Z" fill="white"/>
</g>
<defs>
<clipPath id="clip0_201_714">
<rect width="21" height="21" fill="white"/>
</clipPath>
</defs>
</svg>
