<svg width="12" height="12" viewBox="0 0 12 12" fill="none" xmlns="http://www.w3.org/2000/svg">
<path d="M6.96247 9.5C6.75413 9.5 6.6063 9.41033 6.51897 9.231C6.4313 9.052 6.4458 8.87917 6.56247 8.7125L8.49997 6L6.56247 3.2875C6.4458 3.12083 6.4313 2.94783 6.51897 2.7685C6.6063 2.5895 6.75413 2.5 6.96247 2.5C7.05413 2.5 7.13747 2.52283 7.21247 2.5685C7.28747 2.6145 7.34997 2.67083 7.39997 2.7375L9.51247 5.7125C9.5458 5.75417 9.5708 5.8 9.58747 5.85C9.60413 5.9 9.61247 5.95 9.61247 6C9.61247 6.05 9.60413 6.09783 9.58747 6.1435C9.5708 6.1895 9.5458 6.2375 9.51247 6.2875L7.39997 9.2625C7.34997 9.32917 7.28747 9.3855 7.21247 9.4315C7.13747 9.47717 7.05413 9.5 6.96247 9.5ZM3.98747 9.5C3.77913 9.5 3.6313 9.41033 3.54397 9.231C3.4563 9.052 3.4708 8.87917 3.58747 8.7125L5.52497 6L3.58747 3.2875C3.4708 3.12083 3.4563 2.94783 3.54397 2.7685C3.6313 2.5895 3.77913 2.5 3.98747 2.5C4.07913 2.5 4.16247 2.52283 4.23747 2.5685C4.31247 2.6145 4.37497 2.67083 4.42497 2.7375L6.53747 5.7125C6.5708 5.75417 6.5958 5.8 6.61247 5.85C6.62913 5.9 6.63747 5.95 6.63747 6C6.63747 6.05 6.62913 6.1 6.61247 6.15C6.5958 6.2 6.5708 6.24583 6.53747 6.2875L4.42497 9.2625C4.37497 9.32917 4.31247 9.3855 4.23747 9.4315C4.16247 9.47717 4.07913 9.5 3.98747 9.5Z" fill="#1D1D1D" fill-opacity="0.3"/>
</svg>
