<svg width="24" height="24" viewBox="0 0 24 24" fill="none" xmlns="http://www.w3.org/2000/svg">
<path d="M20.5899 22C20.5899 18.13 16.7399 15 11.9999 15C7.25991 15 3.40991 18.13 3.40991 22M11.9999 12C13.326 12 14.5978 11.4732 15.5354 10.5355C16.4731 9.59785 16.9999 8.32608 16.9999 7C16.9999 5.67392 16.4731 4.40215 15.5354 3.46447C14.5978 2.52678 13.326 2 11.9999 2C10.6738 2 9.40206 2.52678 8.46438 3.46447C7.5267 4.40215 6.99991 5.67392 6.99991 7C6.99991 8.32608 7.5267 9.59785 8.46438 10.5355C9.40206 11.4732 10.6738 12 11.9999 12Z" stroke="#1D1D1D" stroke-width="1.5" stroke-linecap="round" stroke-linejoin="round"/>
</svg>
